Coordinates
version=1
nRows=19
nColumns=18
inDegrees=yes

Units are S.I. units (second, meters, Newtons, ...)
Angles are in degrees.

endheader
time	pelvis_tilt	pelvis_list	pelvis_rotation	pelvis_tx	pelvis_ty	pelvis_tz	hip_flexion_r	hip_adduction_r	hip_rotation_r	knee_angle_r	ankle_angle_r	hip_flexion_l	hip_adduction_l	hip_rotation_l	knee_angle_l	ankle_angle_l	lumbar_extension
      2.03000000	      0.51696620	     -0.03997411	      0.61182627	      0.83191647	      0.92717042	     -0.25865248	     21.25084877	      0.48560541	      0.00000000	    -64.70300149	      9.87262361	      1.34982981	      6.44073424	      0.00000000	     -9.86484538	     10.91048610	     -5.00000214
      2.04000000	      0.47735200	     -0.06252587	      0.85023128	      0.84190624	      0.92745909	     -0.25905776	     22.41645188	      0.53715759	      0.00000000	    -63.22757476	     10.25356027	      0.14774654	      6.39709247	      0.00000000	     -8.80141919	     10.94772955	     -5.00000214
      2.05000000	      0.45535594	     -0.09271965	      1.10092402	      0.85199729	      0.92767343	     -0.25938719	     23.43093200	      0.60504962	      0.00000000	    -61.47831205	     10.60491587	     -1.11977742	      6.33488106	      0.00000000	     -7.65433001	     10.87356049	     -5.00000214
      2.06000000	      0.43306227	     -0.12614939	      1.32645815	      0.86210235	      0.92773766	     -0.25963180	     24.34895312	      0.68323117	      0.00000000	    -59.51449000	     10.92632321	     -2.44136612	      6.26198381	      0.00000000	     -6.39276327	     10.63687346	     -5.00000214
      2.07000000	      0.40971275	     -0.17219146	      1.54917672	      0.87212520	      0.92767007	     -0.25977920	     25.16124397	      0.78043583	      0.00000000	    -57.29938792	     11.11165187	     -3.73269950	      6.16829929	      0.00000000	     -5.18727337	     10.44062052	     -5.00000214
      2.08000000	      0.36004045	     -0.24116838	      1.80434517	      0.88206334	      0.92746430	     -0.25983978	     25.86834094	      0.90734735	      0.00000000	    -54.82464222	     11.15152036	     -4.87122045	      6.03895382	      0.00000000	     -4.23724719	     10.52639665	     -5.00000214
      2.09000000	      0.35269738	     -0.29522299	      1.97426268	      0.89223703	      0.92712637	     -0.25986499	     26.42823377	      1.00513741	      0.00000000	    -52.17768243	     11.13846788	     -6.18790228	      5.93114104	      0.00000000	     -3.04074464	     10.49585042	     -5.00000214
      2.10000000	      0.34233290	     -0.33088139	      2.07998238	      0.90244547	      0.92660149	     -0.25987063	     26.89691570	      1.07437086	      0.00000000	    -49.36934826	     11.01911699	     -7.55787129	      5.86164135	      0.00000000	     -1.73596606	     10.26026603	     -5.00000214
      2.11000000	      0.32297442	     -0.37006482	      2.21475333	      0.91259649	      0.92596997	     -0.25986091	     27.21188179	      1.15007546	      0.00000000	    -46.28550259	     10.77021431	     -8.80480690	      5.78764807	      0.00000000	     -0.65268725	     10.03226597	     -5.00000214
      2.12000000	      0.26600387	     -0.42297420	      2.37983919	      0.92258497	      0.92517585	     -0.25978821	     27.42538711	      1.24925682	      0.00000000	    -42.95419287	     10.49357283	     -9.87938085	      5.69810931	      0.00000000	      0.18232862	     10.01294571	     -5.00000214
      2.13000000	      0.23881744	     -0.46202059	      2.44378259	      0.93281186	      0.92422960	     -0.25963716	     27.49428902	      1.34863656	      0.00000000	    -39.47346927	      9.73700175	    -11.13281161	      5.65209181	      0.00000000	      1.30221623	      9.68864941	     -5.00000214
      2.14000000	      0.19058722	     -0.50397166	      2.58273097	      0.94294989	      0.92316684	     -0.25947909	     27.42514884	      1.44951141	      0.00000000	    -35.76027798	      8.96400428	    -12.21545995	      5.58588310	      0.00000000	      2.13053965	      9.56975763	     -5.00000214
      2.15000000	      0.15055429	     -0.53959828	      2.73502456	      0.95318535	      0.92196323	     -0.25930181	     27.20805608	      1.54594572	      0.00000000	    -31.88887910	      8.18528252	    -13.25869033	      5.51918094	      0.00000000	      2.84519471	      9.60072921	     -5.00000214
      2.16000000	      0.09311063	     -0.59948279	      2.89949092	      0.96342267	      0.92066074	     -0.25898802	     26.88093385	      1.68096510	      0.00000000	    -27.85917793	      7.01412071	    -14.21608322	      5.40420907	      0.00000000	      3.43830719	      9.52606790	     -5.00000214
      2.17000000	      0.04083734	     -0.61606779	      3.13288881	      0.97377729	      0.91925722	     -0.25890545	     26.43335901	      1.73228292	      0.00000000	    -23.78205787	      5.96519678	    -15.09095237	      5.31631705	      0.00000000	      3.85057361	      9.57868935	     -5.00000214
      2.18000000	      0.00269571	     -0.63929775	      3.36215980	      0.98429386	      0.91778210	     -0.25876576	     25.86633858	      1.79684193	      0.00000000	    -19.67779956	      4.91326489	    -15.91024533	      5.19955473	      0.00000000	      4.10055995	      9.69180832	     -5.00000214
      2.19000000	     -0.00899507	     -0.62666100	      3.59519867	      0.99507370	      0.91623781	     -0.25875775	     25.21742152	      1.81136644	      0.00000000	    -15.72650738	      4.59977891	    -16.66480722	      5.10681684	      0.00000000	      4.12467708	      9.82617087	     -5.00000214
      2.20000000	     -0.03592701	     -0.62236068	      3.82098613	      1.00592520	      0.91471276	     -0.25867459	     24.52364652	      1.83446458	      0.00000000	    -11.84774147	      2.97719572	    -17.38568819	      4.98013459	      0.00000000	      4.14020139	      9.95927691	     -5.00000214
      2.21000000	     -0.03609087	     -0.57792898	      4.02070861	      1.01703632	      0.91315754	     -0.25869521	     23.81676517	      1.81110473	      0.00000000	     -8.35108640	      2.04480446	    -18.07215675	      4.88976376	      0.00000000	      3.98414339	     10.07492038	     -5.00000214
